{
  "asset": {
    "generator": "Khronos glTF Blender I/O v1.6.16",
    "version": "2.0"
  },
  "extensionsUsed": [
    "KHR_texture_transform"
  ],
  "extensionsRequired": [
    "KHR_texture_transform"
  ],
  "scene": 0,
  "scenes": [
    {
      "name": "Scene",
      "nodes": [
        0
      ]
    }
  ],
  "nodes": [
    {
      "mesh": 0,
      "name": "sphere_gltf"
    }
  ],
  "materials": [
    {
      "doubleSided": true,
      "name": "rock_boulder_dry",
      "normalTexture": {
        "extensions": {
          "KHR_texture_transform": {
            "offset": [
              1,
              -1
            ]
          }
        },
        "index": 0
      },
      "pbrMetallicRoughness": {
        "baseColorTexture": {
          "extensions": {
            "KHR_texture_transform": {
              "offset": [
                1,
                -1
              ]
            }
          },
          "index": 1
        },
        "metallicFactor": 0,
        "metallicRoughnessTexture": {
          "extensions": {
            "KHR_texture_transform": {
              "offset": [
                1,
                -1
              ]
            }
          },
          "index": 2
        }
      }
    }
  ],
  "meshes": [
    {
      "name": "Sphere.001",
      "primitives": [
        {
          "attributes": {
            "POSITION": 0,
            "NORMAL": 1,
            "TEXCOORD_0": 2
          },
          "indices": 3,
          "material": 0
        }
      ]
    }
  ],
  "textures": [
    {
      "sampler": 0,
      "source": 0
    },
    {
      "sampler": 0,
      "source": 1
    },
    {
      "sampler": 0,
      "source": 2
    }
  ],
  "images": [
    {
      "mimeType": "image/jpeg",
      "name": "rock_boulder_dry_nor_gl_16k",
      "uri": "textures/rock_boulder_dry_nor_gl_1k.jpg"
    },
    {
      "mimeType": "image/jpeg",
      "name": "rock_boulder_dry_diff_16k",
      "uri": "textures/rock_boulder_dry_diff_1k.jpg"
    },
    {
      "mimeType": "image/jpeg",
      "name": "rock_boulder_dry_arm_16k",
      "uri": "textures/rock_boulder_dry_arm_1k.jpg"
    }
  ],
  "accessors": [
    {
      "bufferView": 0,
      "componentType": 5126,
      "count": 53901,
      "max": [
        0.91329026222229,
        0.9114786386489868,
        0.9146289825439453
      ],
      "min": [
        -0.9132903814315796,
        -0.907187283039093,
        -0.9146246314048767
      ],
      "type": "VEC3"
    },
    {
      "bufferView": 1,
      "componentType": 5126,
      "count": 53901,
      "type": "VEC3"
    },
    {
      "bufferView": 2,
      "componentType": 5126,
      "count": 53901,
      "type": "VEC2"
    },
    {
      "bufferView": 3,
      "componentType": 5123,
      "count": 322170,
      "type": "SCALAR"
    }
  ],
  "bufferViews": [
    {
      "buffer": 0,
      "byteLength": 646812,
      "byteOffset": 0
    },
    {
      "buffer": 0,
      "byteLength": 646812,
      "byteOffset": 646812
    },
    {
      "buffer": 0,
      "byteLength": 431208,
      "byteOffset": 1293624
    },
    {
      "buffer": 0,
      "byteLength": 644340,
      "byteOffset": 1724832
    }
  ],
  "samplers": [
    {
      "magFilter": 9729,
      "minFilter": 9987
    }
  ],
  "buffers": [
    {
      "byteLength": 2369172,
      "uri": "rock_boulder_dry.bin"
    }
  ]
}